<svg width="25" height="24" viewBox="0 0 25 24" fill="none" xmlns="http://www.w3.org/2000/svg">
<path d="M17.5 10.8045C17.5 10.4588 17.5 10.286 17.552 10.132C17.7032 9.68444 18.1018 9.51076 18.5011 9.32888C18.95 9.12442 19.1744 9.02219 19.3968 9.0042C19.6493 8.98378 19.9022 9.03818 20.118 9.15929C20.4041 9.31984 20.6036 9.62493 20.8079 9.87302C21.7513 11.0188 22.2229 11.5918 22.3955 12.2236C22.5348 12.7334 22.5348 13.2666 22.3955 13.7764C22.1438 14.6979 21.3485 15.4704 20.7598 16.1854C20.4587 16.5511 20.3081 16.734 20.118 16.8407C19.9022 16.9618 19.6493 17.0162 19.3968 16.9958C19.1744 16.9778 18.95 16.8756 18.5011 16.6711C18.1018 16.4892 17.7032 16.3156 17.552 15.868C17.5 15.714 17.5 15.5412 17.5 15.1955V10.8045Z" stroke="white" stroke-width="1.5"/>
<path d="M7.5 10.8046C7.5 10.3694 7.48778 9.97821 7.13591 9.6722C7.00793 9.5609 6.83825 9.48361 6.49891 9.32905C6.05001 9.12458 5.82556 9.02235 5.60316 9.00436C4.93591 8.9504 4.57692 9.40581 4.19213 9.87318C3.24875 11.019 2.77706 11.5919 2.60446 12.2237C2.46518 12.7336 2.46518 13.2668 2.60446 13.7766C2.8562 14.6981 3.65152 15.4705 4.24021 16.1856C4.61129 16.6363 4.96577 17.0475 5.60316 16.996C5.82556 16.978 6.05001 16.8757 6.49891 16.6713C6.83825 16.5167 7.00793 16.4394 7.13591 16.3281C7.48778 16.0221 7.5 15.631 7.5 15.1957V10.8046Z" stroke="white" stroke-width="1.5"/>
<path d="M5.5 9C5.5 5.68629 8.63401 3 12.5 3C16.366 3 19.5 5.68629 19.5 9" stroke="white" stroke-width="1.5" stroke-linecap="square" stroke-linejoin="round"/>
<path d="M19.5 17V17.8C19.5 19.5673 17.7091 21 15.5 21H13.5" stroke="white" stroke-width="1.5" stroke-linecap="round" stroke-linejoin="round"/>
</svg>
