<svg width="25" height="24" viewBox="0 0 25 24" fill="none" xmlns="http://www.w3.org/2000/svg">
<path d="M2.85151 13.2135C2.49849 10.9162 2.32198 9.76763 2.75629 8.74938C3.19059 7.73112 4.15415 7.03443 6.08126 5.64106L7.52111 4.6C9.91841 2.86667 11.1171 2 12.5001 2C13.8832 2 15.0818 2.86667 17.4791 4.6L18.919 5.64106C20.8461 7.03443 21.8097 7.73112 22.244 8.74938C22.6783 9.76763 22.5018 10.9162 22.1487 13.2135L21.8477 15.1724C21.3473 18.4289 21.097 20.0572 19.9291 21.0286C18.7612 22 17.0538 22 13.6389 22H11.3613C7.94646 22 6.23903 22 5.07112 21.0286C3.90321 20.0572 3.65299 18.4289 3.15255 15.1724L2.85151 13.2135Z" stroke="#8C8C8C" stroke-width="1.5" stroke-linejoin="round"/>
<path d="M15.5001 17C14.7006 17.6224 13.6504 18 12.5001 18C11.3499 18 10.2997 17.6224 9.50012 17" stroke="#8C8C8C" stroke-width="1.5" stroke-linecap="round"/>
</svg>
